<svg xmlns="http://www.w3.org/2000/svg" viewBox="0 0 56.69 56.69"><defs><style>.cls-1{fill:#85754e;}</style></defs><title>Asset 132</title><g id="Layer_2" data-name="Layer 2"><g id="Layer_1-2" data-name="Layer 1"><path class="cls-1" d="M0,0V56.69H56.69V0H0ZM13.92.25V42.42L7.34,49V.25ZM21,.25V35.33l-6.59,6.59V.25Zm7.09,0v28l-6.59,6.59V.25ZM35,.25V21.3L28.6,27.74V.25Zm7.23,0V14.07L35.54,20.8V.25Zm7.09,0V7l-6.59,6.59V.25Zm6.73,0L49.86,6.48V.25Zm.35,6.59H50.21L56.44.6Zm0,7.08H43.12l6.59-6.58h6.73Zm0,7.09H36l6.58-6.59H56.44Zm0,7.09H29l6.59-6.59h20.9Zm0,7.08H21.86l6.59-6.58h28Zm0,7.09H14.78l6.58-6.59H56.44Zm0,7.09H7.69l6.59-6.59H56.44ZM.6,56.44l6.59-6.58H56.44v6.58Zm-.35-.35V.25H6.84V49.5Z"/></g></g></svg>