<svg xmlns="http://www.w3.org/2000/svg" viewBox="0 0 56.69 56.69"><defs><style>.cls-1{fill:#85754e;}</style></defs><title>Asset 110</title><g id="Layer_2" data-name="Layer 2"><g id="Layer_1-2" data-name="Layer 1"><path class="cls-1" d="M0,0V56.69H56.69V0ZM28.6.6,56.09,28.1H42.62l-14-14Zm0,14.18L41.92,28.1H28.6Zm0,13.82H41.92L28.6,41.92ZM.25.25H13.57L.25,13.57Zm0,14,14-14H27.74L.25,27.74Zm0,42.16V43.12L13.57,56.44Zm14,0-14-14V29L27.74,56.44Zm13.82-.35L.6,28.6H14.07l14,14Zm0-14.17L14.78,28.6H28.1Zm0-13.82H14.78L28.1,14.78Zm0-14-14,14H.6L28.1.6Zm.5,28.55,14-14H56.09L28.6,56.09ZM56.44,56.44H43.12L56.44,43.12Zm0-14-14,14H29L56.44,29Zm0-14.68L29,.25H42.42l14,14Zm0-14.17L43.12.25H56.44Z"/></g></g></svg>