<svg xmlns="http://www.w3.org/2000/svg" viewBox="0 0 56.69 56.69"><defs><style>.cls-1{fill:none;}.cls-2{fill:#85754e;}</style></defs><title>Asset 19</title><g id="Layer_2" data-name="Layer 2"><g id="Layer_1-2" data-name="Layer 1"><polygon class="cls-1" points="0.4 56.44 13.96 56.44 27.51 2.15 0.4 56.44"/><polygon class="cls-1" points="28.05 56.44 28.05 2.03 14.47 56.44 28.05 56.44"/><polygon class="cls-1" points="14.28 0.25 0.25 14.28 0.25 27.7 27.7 0.25 14.28 0.25"/><polygon class="cls-1" points="28.55 56.44 42.14 56.44 28.55 2.03 28.55 56.44"/><polygon class="cls-1" points="0.25 28.41 0.25 55.63 27.39 1.26 0.25 28.41"/><polygon class="cls-1" points="0.25 0.25 0.25 13.57 13.57 0.25 0.25 0.25"/><polygon class="cls-1" points="56.44 13.66 56.44 0.25 43.04 0.25 56.44 13.66"/><polygon class="cls-1" points="42.65 56.44 56.2 56.44 29.1 2.15 42.65 56.44"/><polygon class="cls-1" points="29.21 1.26 56.44 55.8 56.44 28.47 56.43 28.48 29.21 1.26"/><polygon class="cls-1" points="42.33 0.25 28.91 0.25 56.44 27.79 56.44 14.34 56.43 14.35 42.33 0.25"/><path class="cls-2" d="M56.69,0H0V56.69H56.69ZM.25.25H13.57L.25,13.57Zm0,14,14-14H27.7L.25,27.7Zm0,14.13L27.39,1.26.25,55.63Zm.15,28L27.51,2.15,14,56.44Zm27.65,0H14.47L28.05,2Zm.5,0V2L42.14,56.44Zm14.1,0L29.1,2.15,56.2,56.44Zm13.79-.64L29.21,1.26,56.43,28.48h0Zm0-28L28.91.25H42.33l14.1,14.1h0Zm0-14.13L43,.25h13.4Z"/></g></g></svg>