<svg xmlns="http://www.w3.org/2000/svg" viewBox="0 0 56.69 56.69"><defs><style>.cls-1{fill:#85754e;}</style></defs><title>Asset 50</title><g id="Layer_2" data-name="Layer 2"><g id="Layer_1-2" data-name="Layer 1"><path class="cls-1" d="M49.86,0H0V56.69H56.69V0Zm-.5.25V49l-6.59-6.58V.25Zm-7.09,0V41.92l-6.59-6.59V.25Zm-7.09,0V34.83L28.6,28.24V.25ZM28.1.25V27.74L21.66,21.3V.25Zm-6.94,0V20.8l-6.74-6.73V.25Zm-7.24,0V13.57L7.34,7V.25ZM6.84.25V6.48L.6.25ZM.25.6,6.48,6.84H.25Zm0,6.74H7l6.59,6.58H.25Zm0,7.08H14.07L20.66,21H.25Zm0,7.09H21.16l6.58,6.59H.25Zm0,7.09h28l6.59,6.58H.25Zm0,7.08H35.33l6.59,6.59H.25Zm0,7.09H42.42L49,49.36H.25Zm0,13.67V49.86H49.5l6.59,6.58ZM49.86,49.5V.25h6.58V56.09Z"/></g></g></svg>