<svg xmlns="http://www.w3.org/2000/svg" viewBox="0 0 56.69 56.69"><defs><style>.cls-1{fill:#85754e;}</style></defs><title>Asset 45</title><g id="Layer_2" data-name="Layer 2"><g id="Layer_1-2" data-name="Layer 1"><path class="cls-1" d="M0,6.84V56.69H56.69V0H0Zm.25.5H49l-6.58,6.58H.25Zm0,7.08H41.92L35.33,21H.25Zm0,7.09H34.83L28.24,28.1H.25Zm0,7.09H27.74L21.3,35H.25Zm0,6.94H20.8l-6.73,6.73H.25Zm0,7.23H13.57L7,49.36H.25Zm0,7.09H6.48L.25,56.09ZM.6,56.44l6.24-6.23v6.23Zm6.74,0V49.71l6.58-6.59V56.44Zm7.08,0V42.62L21,36v20.4Zm7.09,0V35.54L28.1,29V56.44Zm7.09,0v-28l6.58-6.59V56.44Zm7.08,0V21.36l6.59-6.58V56.44Zm7.09,0V14.28l6.59-6.59V56.44Zm13.67,0H49.86V7.19L56.44.6ZM49.5,6.84H.25V.25H56.09Z"/></g></g></svg>