<svg xmlns="http://www.w3.org/2000/svg" viewBox="0 0 56.69 56.69"><defs><style>.cls-1{fill:#85754e;}</style></defs><title>Asset 37</title><g id="Layer_2" data-name="Layer 2"><g id="Layer_1-2" data-name="Layer 1"><path class="cls-1" d="M56.69,49.86V0H0V56.69H56.69Zm-.25-.5H7.69l6.59-6.59H56.44Zm0-7.09H14.78l6.58-6.59H56.44Zm0-7.09H21.86l6.59-6.58h28Zm0-7.08H29l6.44-6.44h21Zm0-6.94H35.89l6.73-6.74H56.44Zm0-7.24H43.12l6.59-6.58h6.73Zm0-7.08H50.21L56.44.6ZM56.09.25,49.86,6.48V.25Zm-6.73,0V7l-6.59,6.59V.25Zm-7.09,0V14.07l-6.59,6.59V.25Zm-7.09,0V21.16L28.6,27.74V.25ZM28.1.25v28l-6.59,6.59V.25ZM21,.25V35.33l-6.59,6.59V.25Zm-7.09,0V42.42L7.34,49V.25ZM.25.25H6.84V49.5L.25,56.09ZM7.19,49.86H56.44v6.58H.6Z"/></g></g></svg>