<svg xmlns="http://www.w3.org/2000/svg" viewBox="0 0 56.69 56.69"><defs><style>.cls-1{fill:#85754e;}</style></defs><title>Asset 48</title><g id="Layer_2" data-name="Layer 2"><g id="Layer_1-2" data-name="Layer 1"><path class="cls-1" d="M6.84,56.69H56.69V0H0V56.69Zm.5-.25V7.69l6.58,6.59V56.44Zm7.08,0V14.78L21,21.36V56.44Zm7.09,0V21.86l6.59,6.59v28Zm7.09,0V29L35,35.39v21Zm6.94,0V35.89l6.73,6.73V56.44Zm7.23,0V43.12l6.59,6.59v6.73Zm7.09,0V50.21l6.23,6.23Zm6.58-.35-6.23-6.23h6.23Zm0-6.73H49.71l-6.59-6.59H56.44Zm0-7.09H42.62L36,35.68h20.4Zm0-7.09H35.54L29,28.6H56.44Zm0-7.08h-28l-6.59-6.59H56.44Zm0-7.09H21.36l-6.58-6.59H56.44Zm0-7.09H14.28L7.69,7.34H56.44Zm0-13.67V6.84H7.19L.6.25ZM6.84,7.19V56.44H.25V.6Z"/></g></g></svg>