<svg xmlns="http://www.w3.org/2000/svg" viewBox="0 0 56.69 56.69"><defs><style>.cls-1{fill:#85754e;}</style></defs><title>Asset 131</title><g id="Layer_2" data-name="Layer 2"><g id="Layer_1-2" data-name="Layer 1"><path class="cls-1" d="M56.69,0H0V56.69H56.69V0Zm-.25,13.92H14.28L7.69,7.34H56.44Zm0,7.09H21.36l-6.58-6.59H56.44Zm0,7.09h-28l-6.59-6.59H56.44Zm0,6.94h-21L29,28.6H56.44Zm0,7.23H42.62l-6.73-6.73H56.44Zm0,7.09H49.71l-6.59-6.59H56.44Zm0,6.73-6.23-6.23h6.23Zm-6.58.35V50.21l6.23,6.23Zm-7.09,0V43.12l6.59,6.59v6.73Zm-7.09,0V36l6.59,6.58V56.44Zm-7.08,0V29l6.58,6.59v20.9Zm-7.09,0V21.86l6.59,6.59v28Zm-7.09,0V14.78L21,21.36V56.44Zm-7.08,0V7.69l6.58,6.59V56.44ZM.25.6,6.84,7.19V56.44H.25ZM.6.25H56.44V6.84H7.19Z"/></g></g></svg>