<svg xmlns="http://www.w3.org/2000/svg" viewBox="0 0 56.69 56.69"><defs><style>.cls-1{fill:#85754e;}</style></defs><title>Asset 90</title><g id="Layer_2" data-name="Layer 2"><g id="Layer_1-2" data-name="Layer 1"><path class="cls-1" d="M0,56.69H56.69V0H0ZM28.1,42.12,1.06,28.6h27Zm0-14h-27l27-13.52ZM56.44,56.44h-27l27-13.52Zm0-56.19V13.77L29.4.25ZM28.6.4,56.44,14.33V27.94L28.6,14Zm0,14.18,27,13.52h-27Zm0,14h27l-27,13.52Zm0,14.07L56.44,28.75V42.37L28.6,56.29ZM.25.25h27L.25,13.77Zm0,14.08L28.1.4V14L.25,27.94Zm0,14.42L28.1,42.67V56.29L.25,42.37Zm0,14.17,27,13.52H.25Z"/></g></g></svg>