<svg xmlns="http://www.w3.org/2000/svg" width="226.993" height="82.976" viewBox="0 0 226.993 82.976">
  <g id="logo-blue" transform="translate(-23.236 -98.417)">
    <path id="Path_14" data-name="Path 14" d="M250.229,98.417H102.607l-38.491,49.9-38.491-49.9H23.236v54.122h3.2V104.717l36.89,47.822H64.9l36.89-47.822v47.822h48.2v-3.2H105V127.08h43.4v-3.2H105V101.62H172.25v50.919h3.2V101.62h47.715v50.919h3.2V101.62h23.858Z" transform="translate(0 0)" fill="#002d72"/>
    <g id="Group_42" data-name="Group 42" transform="translate(23.236 168.433)">
      <path id="Path_15" data-name="Path 15" d="M24.611,181.585a2.747,2.747,0,0,0,1.158,1,3.455,3.455,0,0,0,1.455.323,2.958,2.958,0,0,0,.853-.131,2.627,2.627,0,0,0,.792-.392,2.155,2.155,0,0,0,.583-.644,1.723,1.723,0,0,0,.226-.889,1.332,1.332,0,0,0-.453-1.089,3.908,3.908,0,0,0-1.123-.627q-.671-.251-1.464-.487A5.937,5.937,0,0,1,25.177,178a3.548,3.548,0,0,1-1.123-1.123,3.493,3.493,0,0,1-.453-1.908,3.283,3.283,0,0,1,.974-2.263,4.088,4.088,0,0,1,1.3-.845,4.822,4.822,0,0,1,1.908-.34,6.651,6.651,0,0,1,1.933.279,3.324,3.324,0,0,1,1.62,1.132l-1.359,1.237a2.254,2.254,0,0,0-.888-.783,2.8,2.8,0,0,0-1.305-.3,3.172,3.172,0,0,0-1.159.183,2.067,2.067,0,0,0-.739.469,1.663,1.663,0,0,0-.392.619,1.894,1.894,0,0,0-.113.609,1.554,1.554,0,0,0,.451,1.2,3.548,3.548,0,0,0,1.124.68,13.623,13.623,0,0,0,1.463.47,6.308,6.308,0,0,1,1.464.582A3.424,3.424,0,0,1,31,178.911a2.975,2.975,0,0,1,.453,1.751,3.67,3.67,0,0,1-.34,1.6,3.529,3.529,0,0,1-.914,1.2,4.044,4.044,0,0,1-1.358.749,5.25,5.25,0,0,1-1.672.262,6.076,6.076,0,0,1-2.246-.42,3.672,3.672,0,0,1-1.69-1.288Z" transform="translate(-23.236 -171.518)" fill="#002d72"/>
      <path id="Path_16" data-name="Path 16" d="M49.119,184.477a6.658,6.658,0,0,1-2.6-.5,6.045,6.045,0,0,1-2.029-1.367,6.316,6.316,0,0,1-1.324-2.055,7.083,7.083,0,0,1,0-5.12,6.316,6.316,0,0,1,1.324-2.055,6.032,6.032,0,0,1,2.029-1.368,7.035,7.035,0,0,1,5.19,0,6.056,6.056,0,0,1,2.03,1.368,6.347,6.347,0,0,1,1.324,2.055,7.083,7.083,0,0,1,0,5.12,6.348,6.348,0,0,1-1.324,2.055,6.068,6.068,0,0,1-2.03,1.367A6.66,6.66,0,0,1,49.119,184.477Zm0-1.568a4.476,4.476,0,0,0,3.378-1.446,4.635,4.635,0,0,0,.941-1.558,5.652,5.652,0,0,0,0-3.814,4.62,4.62,0,0,0-.941-1.559,4.619,4.619,0,0,0-6.757,0,4.621,4.621,0,0,0-.941,1.559,5.668,5.668,0,0,0,0,3.814,4.635,4.635,0,0,0,.941,1.558,4.481,4.481,0,0,0,3.379,1.446Z" transform="translate(-24.057 -171.518)" fill="#002d72"/>
      <path id="Path_17" data-name="Path 17" d="M76.266,174.5a3.443,3.443,0,0,0-1.324-1.045,3.936,3.936,0,0,0-1.654-.366,4.428,4.428,0,0,0-1.891.392,4.339,4.339,0,0,0-1.444,1.071,4.866,4.866,0,0,0-.932,1.594,5.7,5.7,0,0,0-.33,1.96A5.409,5.409,0,0,0,69,179.948a4.614,4.614,0,0,0,.906,1.533,4.227,4.227,0,0,0,1.446,1.046,4.661,4.661,0,0,0,1.933.383,3.84,3.84,0,0,0,1.863-.436,4,4,0,0,0,1.359-1.219l1.411,1.062a5.566,5.566,0,0,1-.488.549,4.917,4.917,0,0,1-.923.714,6.578,6.578,0,0,1-1.385.628,5.944,5.944,0,0,1-1.872.27,6.078,6.078,0,0,1-2.639-.558,6.456,6.456,0,0,1-3.7-5.817,7.251,7.251,0,0,1,.469-2.639,6.264,6.264,0,0,1,1.315-2.091,5.877,5.877,0,0,1,2.03-1.366,6.789,6.789,0,0,1,2.613-.488,6.406,6.406,0,0,1,2.395.47,4.473,4.473,0,0,1,1.924,1.445Z" transform="translate(-25.079 -171.518)" fill="#002d72"/>
      <path id="Path_18" data-name="Path 18" d="M89.606,171.846h1.672v12.331H89.606Z" transform="translate(-26.036 -171.532)" fill="#002d72"/>
      <path id="Path_19" data-name="Path 19" d="M107.551,171.846h1.516l5.277,12.331h-1.951l-1.237-3.049h-5.868l-1.22,3.049h-1.95Zm3,7.82-2.3-5.66h-.035l-2.333,5.66Z" transform="translate(-26.564 -171.532)" fill="#002d72"/>
      <path id="Path_20" data-name="Path 20" d="M125.647,171.846h1.673v10.763h5.66v1.568h-7.333Z" transform="translate(-27.557 -171.532)" fill="#002d72"/>
      <path id="Path_21" data-name="Path 21" d="M158.324,171.846H160v10.763h5.66v1.568h-7.333Z" transform="translate(-28.936 -171.532)" fill="#002d72"/>
      <path id="Path_22" data-name="Path 22" d="M176.854,171.846h1.672v12.331h-1.672Z" transform="translate(-29.718 -171.532)" fill="#002d72"/>
      <path id="Path_23" data-name="Path 23" d="M189.237,171.846h1.934l3.622,10.032h.035l3.762-10.032h1.829l-4.859,12.331h-1.568Z" transform="translate(-30.24 -171.532)" fill="#002d72"/>
      <path id="Path_24" data-name="Path 24" d="M211.548,171.846h1.673v12.331h-1.673Z" transform="translate(-31.182 -171.532)" fill="#002d72"/>
      <path id="Path_25" data-name="Path 25" d="M225.7,171.846h2.194l6.793,10.135h.035V171.846h1.671v12.331h-2.124L227.4,174.039h-.034v10.137H225.7Z" transform="translate(-31.779 -171.532)" fill="#002d72"/>
      <path id="Path_26" data-name="Path 26" d="M259.733,177.266v6.078a5.62,5.62,0,0,1-1.028.488,11.129,11.129,0,0,1-1.192.357,10.266,10.266,0,0,1-1.256.217,10.861,10.861,0,0,1-1.192.071,7.088,7.088,0,0,1-2.795-.523,6.135,6.135,0,0,1-2.073-1.411,6.054,6.054,0,0,1-1.289-2.064,6.97,6.97,0,0,1-.443-2.483,6.749,6.749,0,0,1,.479-2.559,6.285,6.285,0,0,1,1.324-2.055,6.023,6.023,0,0,1,2.029-1.368,6.637,6.637,0,0,1,2.6-.5,7.688,7.688,0,0,1,2.786.427,5.129,5.129,0,0,1,1.811,1.175l-1.185,1.271a4.4,4.4,0,0,0-1.62-1.019,5.607,5.607,0,0,0-1.793-.286,4.488,4.488,0,0,0-3.38,1.445,4.633,4.633,0,0,0-.94,1.559,5.443,5.443,0,0,0-.33,1.906,5.129,5.129,0,0,0,.364,1.943,4.831,4.831,0,0,0,1.011,1.558,4.636,4.636,0,0,0,1.514,1.035,4.751,4.751,0,0,0,1.9.375,8.153,8.153,0,0,0,1.68-.167,4.657,4.657,0,0,0,1.35-.479v-3.431h-2.735v-1.567Z" transform="translate(-32.74 -171.518)" fill="#002d72"/>
    </g>
  </g>
</svg>
