<svg xmlns="http://www.w3.org/2000/svg" viewBox="0 0 56.69 56.69"><defs><style>.cls-1{fill:none;}.cls-2{fill:#85754e;}</style></defs><title>Asset 27</title><g id="Layer_2" data-name="Layer 2"><g id="Layer_1-2" data-name="Layer 1"><polygon class="cls-1" points="56.44 56.29 56.44 42.74 2.15 29.18 56.44 56.29"/><polygon class="cls-1" points="56.44 28.64 2.03 28.64 56.44 42.22 56.44 28.64"/><polygon class="cls-1" points="0.25 42.42 14.28 56.44 27.7 56.44 0.25 28.99 0.25 42.42"/><polygon class="cls-1" points="56.44 28.14 56.44 14.56 2.03 28.14 56.44 28.14"/><polygon class="cls-1" points="28.41 56.44 55.63 56.44 1.26 29.3 28.41 56.44"/><polygon class="cls-1" points="0.25 56.44 13.57 56.44 0.25 43.12 0.25 56.44"/><polygon class="cls-1" points="13.66 0.25 0.25 0.25 0.25 13.65 13.66 0.25"/><polygon class="cls-1" points="56.44 14.04 56.44 0.49 2.15 27.59 56.44 14.04"/><polygon class="cls-1" points="1.26 27.48 55.8 0.25 28.47 0.25 28.48 0.26 1.26 27.48"/><polygon class="cls-1" points="0.25 14.36 0.25 27.79 27.79 0.25 14.34 0.25 14.35 0.26 0.25 14.36"/><path class="cls-2" d="M0,0V56.69H56.69V0ZM.25,56.44V43.12L13.57,56.44Zm14,0-14-14V29L27.7,56.44Zm14.13,0L1.26,29.3,55.63,56.44Zm28-.15L2.15,29.18,56.44,42.74Zm0-27.65V42.22L2,28.64Zm0-.5H2L56.44,14.56Zm0-14.1L2.15,27.6,56.44.49ZM55.8.25,1.26,27.48,28.48.26H55.8Zm-28,0L.25,27.79V14.36L14.35.26H27.79ZM13.66.25.25,13.66V.25Z"/></g></g></svg>