<svg xmlns="http://www.w3.org/2000/svg" viewBox="0 0 56.69 56.69"><defs><style>.cls-1{fill:#85754e;}</style></defs><title>Asset 75</title><g id="Layer_2" data-name="Layer 2"><g id="Layer_1-2" data-name="Layer 1"><path class="cls-1" d="M0,0V56.69H56.69V0ZM14.58,28.1l13.52-27v27Zm14,0v-27l13.52,27ZM.25,56.44v-27l13.52,27Zm56.19,0H42.92l13.52-27ZM56.29,28.6,42.37,56.44H28.75L42.67,28.6Zm-14.17,0-13.52,27v-27Zm-14,0v27l-13.52-27ZM14,28.6,27.94,56.44H14.33L.4,28.6ZM56.44.25v27L42.92.25ZM42.37.25,56.29,28.1H42.67L28.75.25ZM27.94.25,14,28.1H.4L14.33.25ZM13.77.25.25,27.29V.25Z"/></g></g></svg>