<svg xmlns="http://www.w3.org/2000/svg" viewBox="0 0 56.69 56.69"><defs><style>.cls-1{fill:none;}.cls-2{fill:#85754e;}</style></defs><title>Asset 14</title><g id="Layer_2" data-name="Layer 2"><g id="Layer_1-2" data-name="Layer 1"><polygon class="cls-1" points="0.25 0.4 0.25 13.96 54.54 27.51 0.25 0.4"/><polygon class="cls-1" points="0.25 28.05 54.66 28.05 0.25 14.47 0.25 28.05"/><polygon class="cls-1" points="56.44 14.28 42.42 0.25 28.99 0.25 56.44 27.7 56.44 14.28"/><polygon class="cls-1" points="0.25 28.55 0.25 42.14 54.66 28.55 0.25 28.55"/><polygon class="cls-1" points="28.29 0.25 1.06 0.25 55.43 27.39 28.29 0.25"/><polygon class="cls-1" points="56.44 0.25 43.12 0.25 56.44 13.57 56.44 0.25"/><polygon class="cls-1" points="43.04 56.44 56.44 56.44 56.44 43.04 43.04 56.44"/><polygon class="cls-1" points="0.25 42.65 0.25 56.2 54.54 29.1 0.25 42.65"/><polygon class="cls-1" points="55.43 29.21 0.89 56.44 28.23 56.44 28.21 56.43 55.43 29.21"/><polygon class="cls-1" points="56.44 42.33 56.44 28.91 28.91 56.44 42.35 56.44 42.34 56.43 56.44 42.33"/><path class="cls-2" d="M56.69,56.69V0H0V56.69ZM56.44.25V13.57L43.12.25Zm-14,0,14,14V27.7L29,.25ZM28.29.25,55.43,27.39,1.06.25ZM.25.4,54.54,27.51.25,14Zm0,27.65V14.47L54.66,28.05Zm0,.5H54.66L.25,42.14Zm0,14.1L54.54,29.1.25,56.2ZM.89,56.44,55.43,29.21,28.21,56.43H.89Zm28,0L56.44,28.91V42.33l-14.1,14.1H28.91Zm14.13,0L56.44,43v13.4Z"/></g></g></svg>