<svg xmlns="http://www.w3.org/2000/svg" viewBox="0 0 56.69 56.69"><defs><style>.cls-1{fill:none;}.cls-2{fill:#85754e;}</style></defs><title>Asset 68</title><g id="Layer_2" data-name="Layer 2"><g id="Layer_1-2" data-name="Layer 1"><polygon class="cls-1" points="56.29 0.25 42.74 0.25 29.18 54.54 56.29 0.25"/><polygon class="cls-1" points="28.64 0.25 28.64 54.66 42.22 0.25 28.64 0.25"/><polygon class="cls-1" points="42.42 56.44 56.44 42.42 56.44 28.99 28.99 56.44 42.42 56.44"/><polygon class="cls-1" points="28.14 0.25 14.56 0.25 28.14 54.66 28.14 0.25"/><polygon class="cls-1" points="56.44 28.29 56.44 1.06 29.3 55.43 56.44 28.29"/><polygon class="cls-1" points="56.44 56.44 56.44 43.12 43.12 56.44 56.44 56.44"/><polygon class="cls-1" points="0.25 43.04 0.25 56.44 13.65 56.44 0.25 43.04"/><polygon class="cls-1" points="14.04 0.25 0.49 0.25 27.59 54.54 14.04 0.25"/><polygon class="cls-1" points="27.48 55.43 0.25 0.89 0.25 28.23 0.26 28.21 27.48 55.43"/><polygon class="cls-1" points="14.36 56.44 27.79 56.44 0.25 28.91 0.25 42.35 0.26 42.34 14.36 56.44"/><path class="cls-2" d="M0,56.69H56.69V0H0Zm56.44-.25H43.12L56.44,43.12Zm0-14-14,14H29L56.44,29Zm0-14.13L29.3,55.43,56.44,1.06Zm-.15-28L29.18,54.54,42.74.25ZM28.64.25H42.22L28.64,54.66Zm-.5,0V54.66L14.56.25ZM14,.25,27.6,54.54.49.25ZM.25.89,27.48,55.43.26,28.21V.89Zm0,28L27.79,56.44H14.36L.26,42.34V28.91ZM.25,43l13.41,13.4H.25Z"/></g></g></svg>